HIERARCHY
ROOT Hips
{
	OFFSET 0.000000 35.082581 0.000000
	CHANNELS 6 Xposition Yposition Zposition Xrotation Yrotation Zrotation 
	JOINT Spine
	{
		OFFSET 0.000000 6.876099 0.125700
		CHANNELS 3 Xrotation Yrotation Zrotation
		JOINT Spine1
		{
			OFFSET 0.000000 5.730043 0.104720
			CHANNELS 3 Xrotation Yrotation Zrotation
			JOINT Spine1_split
			{
				OFFSET 0.000000 5.730043 0.104720
				CHANNELS 3 Xrotation Yrotation Zrotation
				JOINT Spine2
				{
					OFFSET 0.000000 5.730043 0.104720
					CHANNELS 3 Xrotation Yrotation Zrotation
					JOINT Neck
					{
						OFFSET 0.000000 10.314075 0.188496
						CHANNELS 3 Xrotation Yrotation Zrotation
						JOINT Head
						{
							OFFSET 0.000000 7.643700 -2.377400
							CHANNELS 3 Xrotation Yrotation Zrotation
							JOINT HeadTop_End
							{
								OFFSET 0.000000 43.788605 -13.619600
								CHANNELS 3 Xrotation Yrotation Zrotation
								End Site
								{
									OFFSET 0.000000 0.000000 0.000000
								}
							}
						}
					}
					JOINT LeftShoulder
					{
						OFFSET 2.196100 4.412489 0.087492
						CHANNELS 3 Xrotation Yrotation Zrotation
						JOINT LeftShoulder_split
						{
							OFFSET 2.196100 4.412489 0.087492
							CHANNELS 3 Xrotation Yrotation Zrotation
							JOINT LeftArm
							{
								OFFSET 8.771219 -2.981674 -0.026999
								CHANNELS 3 Xrotation Yrotation Zrotation
								JOINT LeftForeArm
								{
									OFFSET 8.512804 0.000000 -0.000000
									CHANNELS 3 Xrotation Yrotation Zrotation
									JOINT LeftHand
									{
										OFFSET 18.484802 0.000000 -0.000000
										CHANNELS 3 Xrotation Yrotation Zrotation
										JOINT LeftHandThumb1
										{
											OFFSET 2.499420 -1.158070 2.653252
											CHANNELS 3 Xrotation Yrotation Zrotation
											JOINT LeftHandThumb2
											{
												OFFSET 2.370079 -1.368366 1.368366
												CHANNELS 3 Xrotation Yrotation Zrotation
												JOINT LeftHandThumb3
												{
													OFFSET 2.676727 -1.545410 1.545409
													CHANNELS 3 Xrotation Yrotation Zrotation
													JOINT LeftHandThumb4
													{
														OFFSET 1.692226 -0.977005 0.977007
														CHANNELS 3 Xrotation Yrotation Zrotation
														End Site
														{
															OFFSET 0.000000 0.000000 0.000000
														}
													}
												}
											}
										}
										JOINT LeftHandIndex1
										{
											OFFSET 7.924831 -0.457527 2.345128
											CHANNELS 3 Xrotation Yrotation Zrotation
											JOINT LeftHandIndex2
											{
												OFFSET 3.643303 0.000000 0.000000
												CHANNELS 3 Xrotation Yrotation Zrotation
												JOINT LeftHandIndex3
												{
													OFFSET 3.810799 0.000000 0.000000
													CHANNELS 3 Xrotation Yrotation Zrotation
													JOINT LeftHandIndex4
													{
														OFFSET 2.403702 0.000000 0.000000
														CHANNELS 3 Xrotation Yrotation Zrotation
														End Site
														{
															OFFSET 0.000000 0.000000 0.000000
														}
													}
												}
											}
										}
										JOINT LeftHandMiddle1
										{
											OFFSET 8.563995 0.000000 -0.000000
											CHANNELS 3 Xrotation Yrotation Zrotation
											JOINT LeftHandMiddle2
											{
												OFFSET 3.861618 0.000000 0.000000
												CHANNELS 3 Xrotation Yrotation Zrotation
												JOINT LeftHandMiddle3
												{
													OFFSET 3.701603 0.000000 0.000000
													CHANNELS 3 Xrotation Yrotation Zrotation
													JOINT LeftHandMiddle4
													{
														OFFSET 2.322544 0.000000 0.000000
														CHANNELS 3 Xrotation Yrotation Zrotation
														End Site
														{
															OFFSET 0.000000 0.000000 0.000000
														}
													}
												}
											}
										}
										JOINT LeftHandRing1
										{
											OFFSET 8.426460 -0.424637 -3.286992
											CHANNELS 3 Xrotation Yrotation Zrotation
											JOINT LeftHandRing2
											{
												OFFSET 3.126408 0.000000 0.000000
												CHANNELS 3 Xrotation Yrotation Zrotation
												JOINT LeftHandRing3
												{
													OFFSET 3.085026 0.000000 0.000000
													CHANNELS 3 Xrotation Yrotation Zrotation
													JOINT LeftHandRing4
													{
														OFFSET 1.644005 0.000000 0.000000
														CHANNELS 3 Xrotation Yrotation Zrotation
														End Site
														{
															OFFSET 0.000000 0.000000 0.000000
														}
													}
												}
											}
										}
									}
								}
							}
						}
					}
					JOINT RightShoulder
					{
						OFFSET -2.196100 4.412496 0.070690
						CHANNELS 3 Xrotation Yrotation Zrotation
						JOINT RightShoulder_split
						{
							OFFSET -2.196100 4.412496 0.070690
							CHANNELS 3 Xrotation Yrotation Zrotation
							JOINT RightArm
							{
								OFFSET -8.771282 -2.981682 -0.094208
								CHANNELS 3 Xrotation Yrotation Zrotation
								JOINT RightForeArm
								{
									OFFSET -8.494598 0.000000 0.000000
									CHANNELS 3 Xrotation Yrotation Zrotation
									JOINT RightHand
									{
										OFFSET -18.483803 0.000000 0.000001
										CHANNELS 3 Xrotation Yrotation Zrotation
										JOINT RightHandThumb1
										{
											OFFSET -2.527351 -1.008072 2.575253
											CHANNELS 3 Xrotation Yrotation Zrotation
											JOINT RightHandThumb2
											{
												OFFSET -2.321518 -1.340328 1.340329
												CHANNELS 3 Xrotation Yrotation Zrotation
												JOINT RightHandThumb3
												{
													OFFSET -2.657753 -1.534454 1.534455
													CHANNELS 3 Xrotation Yrotation Zrotation
													JOINT RightHandThumb4
													{
														OFFSET -1.807510 -1.043568 1.043567
														CHANNELS 3 Xrotation Yrotation Zrotation
														End Site
														{
															OFFSET 0.000000 0.000000 0.000000
														}
													}
												}
											}
										}
										JOINT RightHandIndex1
										{
											OFFSET -8.811420 0.015533 2.887987
											CHANNELS 3 Xrotation Yrotation Zrotation
											JOINT RightHandIndex2
											{
												OFFSET -3.537502 0.000000 0.000000
												CHANNELS 3 Xrotation Yrotation Zrotation
												JOINT RightHandIndex3
												{
													OFFSET -3.356201 0.000000 0.000000
													CHANNELS 3 Xrotation Yrotation Zrotation
													JOINT RightHandIndex4
													{
														OFFSET -1.933098 0.000000 0.000000
														CHANNELS 3 Xrotation Yrotation Zrotation
														End Site
														{
															OFFSET 0.000000 0.000000 0.000000
														}
													}
												}
											}
										}
										JOINT RightHandMiddle1
										{
											OFFSET -8.178135 0.000000 0.000000
											CHANNELS 3 Xrotation Yrotation Zrotation
											JOINT RightHandMiddle2
											{
												OFFSET -3.901302 0.000000 0.000000
												CHANNELS 3 Xrotation Yrotation Zrotation
												JOINT RightHandMiddle3
												{
													OFFSET -3.909599 0.000000 0.000000
													CHANNELS 3 Xrotation Yrotation Zrotation
													JOINT RightHandMiddle4
													{
														OFFSET -2.376003 0.000000 0.000000
														CHANNELS 3 Xrotation Yrotation Zrotation
														End Site
														{
															OFFSET 0.000000 0.000000 0.000000
														}
													}
												}
											}
										}
										JOINT RightHandRing1
										{
											OFFSET -7.559013 0.014137 -2.865403
											CHANNELS 3 Xrotation Yrotation Zrotation
											JOINT RightHandRing2
											{
												OFFSET -3.449306 0.000000 0.000000
												CHANNELS 3 Xrotation Yrotation Zrotation
												JOINT RightHandRing3
												{
													OFFSET -3.362106 0.000000 0.000000
													CHANNELS 3 Xrotation Yrotation Zrotation
													JOINT RightHandRing4
													{
														OFFSET -2.076401 0.000000 0.000000
														CHANNELS 3 Xrotation Yrotation Zrotation
														End Site
														{
															OFFSET 0.000000 0.000000 0.000000
														}
													}
												}
											}
										}
									}
								}
							}
						}
					}
				}
			}
		}
	}
	JOINT LeftUpLeg
	{
		OFFSET 10.205400 -3.823500 0.155100
		CHANNELS 3 Xrotation Yrotation Zrotation
		JOINT LeftLeg
		{
			OFFSET 0.708757 -12.982077 0.567790
			CHANNELS 3 Xrotation Yrotation Zrotation
			JOINT LeftFoot
			{
				OFFSET -0.708756 -10.717838 -2.184338
				CHANNELS 3 Xrotation Yrotation Zrotation
				JOINT LeftToeBase
				{
					OFFSET 0.108149 -7.191104 7.560241
					CHANNELS 3 Xrotation Yrotation Zrotation
					JOINT LeftToe_End
					{
						OFFSET 0.070230 0.081724 4.490308
						CHANNELS 3 Xrotation Yrotation Zrotation
						End Site
						{
							OFFSET 0.000000 0.000000 0.000000
						}
					}
				}
			}
		}
	}
	JOINT RightUpLeg
	{
		OFFSET -10.205400 -3.823500 0.005500
		CHANNELS 3 Xrotation Yrotation Zrotation
		JOINT RightLeg
		{
			OFFSET -0.708756 -12.982134 0.610632
			CHANNELS 3 Xrotation Yrotation Zrotation
			JOINT RightFoot
			{
				OFFSET 0.708754 -10.717769 -1.945823
				CHANNELS 3 Xrotation Yrotation Zrotation
				JOINT RightToeBase
				{
					OFFSET -0.108140 -7.191069 7.372968
					CHANNELS 3 Xrotation Yrotation Zrotation
					JOINT RightToe_End
					{
						OFFSET -0.070227 0.081735 4.479403
						CHANNELS 3 Xrotation Yrotation Zrotation
						End Site
						{
							OFFSET 0.000000 0.000000 0.000000
						}
					}
				}
			}
		}
	}
}
MOTION
Frames: 4
Frame Time: 0.016667
0.306137 32.869034 -0.594229 -0.586988 -0.380511 -0.292408 0.360682 -0.169157 0.244297 -1.750145 -0.199001 0.196420 0.000000 0.000000 0.000000 -1.750108 -0.188403 0.203701 -0.289761 -0.205837 -0.385588 4.702786 -2.136756 3.065841 -0.000000 -0.000000 -0.000000 0.993395 -13.202433 -11.017471 0.000000 0.000000 0.000000 16.778889 -19.384222 -67.597392 -0.000009 -17.727288 0.000001 -41.262225 6.787884 3.627209 -5.917878 16.359053 4.033993 -3.203468 11.997060 3.444678 -3.261101 13.950623 3.246348 -0.000000 -0.000001 -0.000001 0.260640 1.880090 -15.783536 0.260623 1.880089 -15.783602 0.260642 1.880090 -15.783526 -0.000000 -0.000000 -0.000000 0.523427 2.637842 -22.443073 0.524902 2.641413 -22.475117 0.524162 2.639626 -22.459081 -0.000000 0.000000 0.000003 0.898042 3.405139 -29.540971 0.898045 3.405140 -29.540975 0.898044 3.405132 -29.540957 -0.000000 0.000000 -0.000001 1.651826 9.058843 10.503861 0.000000 0.000000 0.000000 6.412949 25.534645 64.587512 -0.000016 12.370168 -0.000006 -21.507970 -14.216166 -3.290095 7.843977 -10.746971 2.716241 0.430929 -17.559404 -11.583985 6.895773 -19.300989 -4.640277 0.000004 -0.000004 -0.000004 0.528304 -2.663082 22.437118 0.528282 -2.663088 22.437124 0.528310 -2.663090 22.437115 -0.000000 0.000001 -0.000005 1.160556 -3.851148 33.530099 1.160579 -3.851149 33.530112 1.160565 -3.851146 33.530099 -0.000000 0.000001 0.000000 1.843404 -4.719920 42.648412 1.843413 -4.719922 42.648446 1.843406 -4.719922 42.648439 -0.000000 0.000000 0.000001 -12.533751 3.777223 11.165117 34.473812 2.343297 0.462514 -20.214121 3.253497 -11.427654 0.000002 -0.000002 -0.000001 -0.000000 -0.000001 -0.000000 -14.724320 2.789684 -5.184310 36.264924 -0.311097 -1.742740 -20.604135 -2.494085 7.770389 -0.000093 -0.000002 0.000003 0.000000 -0.000000 -0.000000 
0.311387 32.871181 -0.598150 -0.575196 -0.361983 -0.258422 0.374475 -0.148690 0.224330 -1.755795 -0.176235 0.190827 0.000000 0.000000 0.000000 -1.755714 -0.166635 0.197366 -0.262666 -0.209938 -0.406779 4.752852 -2.162301 3.061369 0.000000 -0.000000 0.000000 0.994033 -13.267631 -11.041490 0.000000 0.000000 0.000000 16.766352 -19.385892 -67.571314 -0.000008 -17.712820 0.000010 -41.267129 6.584322 3.801908 -5.917871 16.359051 4.033996 -3.203492 11.997060 3.444701 -3.261083 13.950636 3.246333 -0.000001 -0.000000 -0.000004 0.260633 1.880091 -15.783531 0.260629 1.880090 -15.783601 0.260638 1.880086 -15.783514 0.000000 -0.000000 0.000000 0.523433 2.637839 -22.443062 0.524902 2.641409 -22.475111 0.524154 2.639613 -22.459076 -0.000000 -0.000000 0.000001 0.898045 3.405145 -29.540988 0.898041 3.405131 -29.540957 0.898046 3.405135 -29.540961 -0.000000 0.000001 0.000000 1.651101 9.037791 10.513362 0.000000 0.000000 0.000000 6.473518 25.519870 64.541422 -0.000002 12.373797 -0.000003 -21.518697 -14.342742 -3.277690 7.843963 -10.746967 2.716250 0.430943 -17.559402 -11.583989 6.895771 -19.301000 -4.640281 0.000004 -0.000004 -0.000004 0.528284 -2.663085 22.437105 0.528289 -2.663085 22.437136 0.528291 -2.663083 22.437113 0.000001 0.000001 0.000003 1.160553 -3.851146 33.530099 1.160577 -3.851153 33.530102 1.160562 -3.851143 33.530102 0.000000 -0.000000 -0.000000 1.843396 -4.719923 42.648432 1.843404 -4.719911 42.648422 1.843405 -4.719936 42.648449 -0.000001 0.000001 -0.000002 -12.555223 3.816358 11.097546 34.424321 2.315727 0.514222 -20.165700 3.249804 -11.445910 -0.000027 0.000007 0.000047 -0.000000 -0.000000 0.000000 -14.740651 2.766885 -5.269934 36.294573 -0.305890 -1.686643 -20.624420 -2.494103 7.758935 -0.000051 -0.000001 0.000002 0.000000 -0.000000 -0.000000 
0.319944 32.872154 -0.601909 -0.562899 -0.348188 -0.210919 0.388526 -0.127840 0.202023 -1.758987 -0.152911 0.185722 0.000000 0.000000 0.000000 -1.758852 -0.144486 0.191302 -0.234934 -0.223743 -0.429562 4.682464 -2.228106 3.016739 0.000000 -0.000000 -0.000000 0.994567 -13.331127 -11.067190 0.000000 0.000000 0.000000 16.711227 -19.428796 -67.559416 0.000000 -17.694309 0.000001 -41.232821 6.340771 3.993487 -5.917891 16.359044 4.033987 -3.203485 11.997060 3.444685 -3.261095 13.950620 3.246366 -0.000001 0.000001 -0.000002 0.260623 1.880088 -15.783546 0.260626 1.880093 -15.783579 0.260631 1.880080 -15.783515 -0.000000 -0.000000 0.000006 0.523408 2.637837 -22.443076 0.524896 2.641408 -22.475103 0.524174 2.639638 -22.459086 0.000000 -0.000000 0.000001 0.898030 3.405140 -29.540971 0.898036 3.405134 -29.540947 0.898049 3.405137 -29.540961 0.000000 0.000000 0.000000 1.655703 9.081060 10.518661 0.000000 0.000000 0.000000 6.559964 25.463673 64.487334 0.000005 12.345259 -0.000011 -21.449308 -14.196714 -3.323724 7.843965 -10.746965 2.716253 0.430944 -17.559405 -11.583996 6.895764 -19.301008 -4.640270 0.000003 0.000002 0.000001 0.528282 -2.663090 22.437108 0.528293 -2.663084 22.437127 0.528303 -2.663089 22.437127 0.000000 0.000001 -0.000001 1.160566 -3.851143 33.530095 1.160551 -3.851148 33.530078 1.160569 -3.851153 33.530102 -0.000000 -0.000000 -0.000000 1.843397 -4.719925 42.648425 1.843403 -4.719917 42.648439 1.843407 -4.719932 42.648425 0.000002 -0.000000 0.000001 -12.569621 3.862744 11.003514 34.370482 2.294303 0.570860 -20.120658 3.244103 -11.462943 -0.000041 -0.000002 0.000052 -0.000000 0.000000 0.000000 -14.774597 2.738165 -5.390873 36.357261 -0.272135 -1.616388 -20.661595 -2.494644 7.743238 -0.000126 -0.000001 0.000003 0.000000 -0.000000 -0.000000 
0.331307 32.875019 -0.606738 -0.547228 -0.362437 -0.151094 0.416767 -0.100074 0.173969 -1.760835 -0.122205 0.183156 0.000000 0.000000 0.000000 -1.760680 -0.115203 0.187763 -0.200767 -0.240773 -0.429505 4.617259 -2.258966 2.936578 -0.000000 0.000000 -0.000000 0.993600 -13.360155 -11.115192 0.000000 0.000000 0.000000 16.611223 -19.504150 -67.520422 0.000011 -17.678775 -0.000003 -41.176550 6.072802 4.205087 -5.917874 16.359046 4.033997 -3.203482 11.997063 3.444658 -3.261086 13.950616 3.246370 -0.000001 -0.000001 -0.000002 0.260639 1.880089 -15.783526 0.260642 1.880098 -15.783602 0.260613 1.880076 -15.783490 -0.000000 -0.000000 -0.000002 0.523430 2.637845 -22.443061 0.524905 2.641408 -22.475108 0.524160 2.639624 -22.459081 -0.000000 0.000000 0.000000 0.898048 3.405140 -29.540957 0.898038 3.405135 -29.540968 0.898049 3.405142 -29.540978 0.000000 0.000001 -0.000000 1.663825 9.137680 10.542168 0.000000 0.000000 0.000000 6.627467 25.453479 64.389272 0.000006 12.280781 -0.000007 -21.391213 -14.081763 -3.324069 7.843979 -10.746959 2.716235 0.430941 -17.559409 -11.583966 6.895758 -19.301001 -4.640273 -0.000000 -0.000000 0.000001 0.528284 -2.663085 22.437136 0.528289 -2.663093 22.437118 0.528307 -2.663089 22.437134 0.000000 -0.000001 -0.000000 1.160563 -3.851145 33.530109 1.160556 -3.851144 33.530099 1.160575 -3.851155 33.530123 -0.000000 -0.000001 -0.000000 1.843385 -4.719922 42.648439 1.843418 -4.719922 42.648442 1.843405 -4.719926 42.648435 0.000002 0.000001 0.000001 -12.543297 3.898435 10.907623 34.264668 2.306791 0.572075 -20.057812 3.236195 -11.458862 -0.000052 -0.000004 0.000053 0.000000 -0.000001 -0.000000 -14.834828 2.756683 -5.535045 36.421140 -0.222829 -1.527827 -20.677440 -2.493215 7.727752 -0.000022 0.000001 -0.000003 0.000000 -0.000000 -0.000000 
